<?xml version="1.0" standalone="no"?><!DOCTYPE svg PUBLIC "-//W3C//DTD SVG 1.1//EN" "http://www.w3.org/Graphics/SVG/1.1/DTD/svg11.dtd"><svg t="1703643020043" class="icon" viewBox="0 0 1024 1024" version="1.1" xmlns="http://www.w3.org/2000/svg" p-id="12429" width="64" height="64" xmlns:xlink="http://www.w3.org/1999/xlink"><path class="icon-path" stroke="#1296db"stroke-width="3" d="M512 739.2 512 739.2c-17.6 0-35.2-1.6-52.8-3.2l-20.8-1.6c-40-4.8-75.2-27.2-94.4-62.4-19.2-35.2-19.2-76.8-1.6-113.6l38.4-75.2c30.4-60.8 83.2-107.2 145.6-131.2l94.4-36.8c48-19.2 102.4-16 148.8 6.4l112 54.4c40 19.2 65.6 57.6 68.8 102.4 1.6 44.8-19.2 86.4-57.6 108.8l-129.6 80C688 713.6 601.6 739.2 512 739.2zM689.6 348.8c-17.6 0-33.6 3.2-49.6 9.6l-94.4 36.8c-52.8 20.8-96 59.2-121.6 108.8l-38.4 75.2c-11.2 22.4-11.2 46.4 0 68.8 11.2 22.4 32 35.2 57.6 38.4L464 688c16 1.6 32 3.2 46.4 3.2 80 0 160-22.4 228.8-65.6l129.6-80c24-14.4 36.8-40 35.2-67.2-1.6-27.2-17.6-51.2-41.6-62.4l-112-54.4C731.2 353.6 710.4 348.8 689.6 348.8z" fill="#fff" p-id="12430"></path><path class="icon-path" stroke="#1296db"stroke-width="3" d="M96 544C96 544 96 544 96 544c-27.2 0-54.4-12.8-72-33.6-17.6-20.8-25.6-48-22.4-76.8l17.6-118.4c6.4-48 48-83.2 96-83.2 16 0 33.6 4.8 48 12.8l116.8 65.6c14.4 8 24 20.8 28.8 36.8s1.6 32-6.4 46.4l-59.2 100.8c-8 14.4-22.4 24-38.4 28.8l-88 19.2C108.8 542.4 102.4 544 96 544zM113.6 280c-24 0-46.4 17.6-49.6 43.2L48 441.6c-1.6 14.4 1.6 27.2 11.2 38.4 9.6 11.2 22.4 16 36.8 16 0 0 0 0 0 0 3.2 0 6.4 0 11.2-1.6l88-19.2c3.2 0 6.4-3.2 8-6.4l59.2-100.8c1.6-3.2 1.6-8 1.6-9.6 0-1.6-1.6-4.8-6.4-8l-116.8-65.6C131.2 283.2 123.2 280 113.6 280z" fill="#fff" p-id="12431"></path><path class="icon-path" stroke="#1296db"stroke-width="3" d="M920 780.8m-96 0a6 6 0 1 0 192 0 6 6 0 1 0-192 0Z" fill="#fff" p-id="12432"></path><path class="icon-path" stroke="#1296db"stroke-width="3" d="M356.8 166.4m-96 0a6 6 0 1 0 192 0 6 6 0 1 0-192 0Z" fill="#fff" p-id="12433"></path><path class="icon-path" stroke="#1296db"stroke-width="3" d="M155.2 870.4c-68.8 0-124.8-56-124.8-124.8s56-124.8 124.8-124.8 124.8 56 124.8 124.8S222.4 870.4 155.2 870.4zM155.2 678.4c-38.4 0-68.8 30.4-68.8 68.8S116.8 816 155.2 816s68.8-30.4 68.8-68.8S192 678.4 155.2 678.4z" fill="#fff" p-id="12434"></path><path class="icon-path" stroke="#1296db"stroke-width="3" d="M630.4 201.6c-35.2 0-64-28.8-64-64 0-35.2 28.8-64 64-64s64 28.8 64 64C694.4 172.8 665.6 201.6 630.4 201.6zM630.4 105.6c-17.6 0-32 14.4-32 32 0 17.6 14.4 32 32 32s32-14.4 32-32C662.4 120 648 105.6 630.4 105.6z" fill="#fff" p-id="12435"></path><path class="icon-path" stroke="#1296db"stroke-width="3" d="M609.6 904m-49.6 0a3.1 3.1 0 1 0 99.2 0 3.1 3.1 0 1 0-99.2 0Z" fill="#fff" p-id="12436"></path><path class="icon-path" stroke="#1296db"stroke-width="3" d="M907.2 187.2m-49.6 0a3.1 3.1 0 1 0 99.2 0 3.1 3.1 0 1 0-99.2 0Z" fill="#fff" p-id="12437"></path><path class="icon-path" stroke="#1296db"stroke-width="3" d="M724.8 774.4m-16 0a1 1 0 1 0 32 0 1 1 0 1 0-32 0Z" fill="#fff" p-id="12438"></path><path class="icon-path" stroke="#1296db"stroke-width="3" d="M790.4 233.6m-16 0a1 1 0 1 0 32 0 1 1 0 1 0-32 0Z" fill="#fff" p-id="12439"></path><path class="icon-path" stroke="#1296db"stroke-width="3" d="M907.2 633.6m-16 0a1 1 0 1 0 32 0 1 1 0 1 0-32 0Z" fill="#fff" p-id="12440"></path><path class="icon-path" stroke="#1296db"stroke-width="3" d="M1003.2 560m-20.8 0a1.3 1.3 0 1 0 41.6 0 1.3 1.3 0 1 0-41.6 0Z" fill="#fff" p-id="12441"></path><path class="icon-path" stroke="#1296db"stroke-width="3" d="M166.4 166.4m-27.2 0a1.7 1.7 0 1 0 54.4 0 1.7 1.7 0 1 0-54.4 0Z" fill="#fff" p-id="12442"></path><path class="icon-path" stroke="#1296db"stroke-width="3" d="M353.6 780.8m-22.4 0a1.4 1.4 0 1 0 44.8 0 1.4 1.4 0 1 0-44.8 0Z" fill="#fff" p-id="12443"></path><path class="icon-path" stroke="#1296db"stroke-width="3" d="M312 873.6m-19.2 0a1.2 1.2 0 1 0 38.4 0 1.2 1.2 0 1 0-38.4 0Z" fill="#fff" p-id="12444"></path><path class="icon-path" stroke="#1296db"stroke-width="3" d="M486.4 809.6m-19.2 0a1.2 1.2 0 1 0 38.4 0 1.2 1.2 0 1 0-38.4 0Z" fill="#fff" p-id="12445"></path><path class="icon-path" stroke="#1296db"stroke-width="3" d="M486.4 256m-19.2 0a1.2 1.2 0 1 0 38.4 0 1.2 1.2 0 1 0-38.4 0Z" fill="#fff" p-id="12446"></path><path class="icon-path" stroke="#1296db"stroke-width="3" d="M520 91.2m-14.4 0a0.9 0.9 0 1 0 28.8 0 0.9 0.9 0 1 0-28.8 0Z" fill="#fff" p-id="12447"></path><path class="icon-path" stroke="#1296db"stroke-width="3" d="M273.6 576m-14.4 0a0.9 0.9 0 1 0 28.8 0 0.9 0.9 0 1 0-28.8 0Z" fill="#fff" p-id="12448"></path><path class="icon-path" stroke="#1296db"stroke-width="3" d="M409.6 334.4m-14.4 0a0.9 0.9 0 1 0 28.8 0 0.9 0.9 0 1 0-28.8 0Z" fill="#fff" p-id="12449"></path><path class="icon-path" stroke="#1296db"stroke-width="3" d="M756.8 121.6m-16 0a1 1 0 1 0 32 0 1 1 0 1 0-32 0Z" fill="#fff" p-id="12450"></path><path class="icon-path" stroke="#1296db"stroke-width="3" d="M995.2 369.6m-20.8 0a1.3 1.3 0 1 0 41.6 0 1.3 1.3 0 1 0-41.6 0Z" fill="#fff" p-id="12451"></path><path class="icon-path" stroke="#1296db"stroke-width="3" d="M897.6 300.8m-20.8 0a1.3 1.3 0 1 0 41.6 0 1.3 1.3 0 1 0-41.6 0Z" fill="#fff" p-id="12452"></path><path class="icon-path" stroke="#1296db"stroke-width="3" d="M742.4 873.6m-19.2 0a1.2 1.2 0 1 0 38.4 0 1.2 1.2 0 1 0-38.4 0Z" fill="#fff" p-id="12453"></path><path class="icon-path" stroke="#1296db"stroke-width="3" d="M444.8 908.8m-36.8 0a2.3 2.3 0 1 0 73.6 0 2.3 2.3 0 1 0-73.6 0Z" fill="#fff" p-id="12454"></path></svg>
